<?xml version="1.0" encoding="UTF-8"?>
<svg version="1.1" xmlns="http://www.w3.org/2000/svg" width="422" height="354">
<path d="M0 0 C139.26 0 278.52 0 422 0 C422 116.82 422 233.64 422 354 C282.74 354 143.48 354 0 354 C0 237.18 0 120.36 0 0 Z " fill="#5F357C" transform="translate(0,0)"/>
<path d="M0 0 C1.00160156 0.24363281 2.00320312 0.48726562 3.03515625 0.73828125 C18.18014339 4.62113943 30.11528886 14.15139072 41 25 C41.60199219 25.53753906 42.20398438 26.07507813 42.82421875 26.62890625 C44 28 44 28 44 31 C42.56640625 32.47265625 42.56640625 32.47265625 40.5625 34.0625 C36.31901681 37.60501705 32.71536212 41.51392995 29.078125 45.66796875 C25.05315871 50.18470724 25.05315871 50.18470724 23 52 C22.01 52 21.02 52 20 52 C18.95686947 50.35998278 17.96302733 48.68829978 17 47 C6.94347401 36.32650923 -6.04351802 29.19430881 -20.85449219 28.52734375 C-37.65555593 28.29997314 -51.49012005 34.11500729 -63.6796875 45.59765625 C-74.28053652 56.57328276 -78.69404837 69.0364474 -78.53686523 84.078125 C-78.30182079 89.99331003 -77.15277411 95.15563192 -74.875 100.65234375 C-74 103 -74 103 -74 107 C-73.34 107 -72.68 107 -72 107 C-70.02 110.465 -70.02 110.465 -68 114 C-67.67 106.41 -67.34 98.82 -67 91 C-63.37 91 -59.74 91 -56 91 C-56 86.05 -56 81.1 -56 76 C-56.99 76 -57.98 76 -59 76 C-59 74.68 -59 73.36 -59 72 C-56.69 72 -54.38 72 -52 72 C-52.05220703 70.71416016 -52.05220703 70.71416016 -52.10546875 69.40234375 C-52.32853218 59.98056915 -51.40750576 54.40256457 -45 47.25 C-40.75210808 43.12766153 -37.07299306 41.68289759 -31.28515625 40.73046875 C-28.82424858 40.2129262 -28.82424858 40.2129262 -27.68359375 37.92578125 C-27.45800781 37.29027344 -27.23242188 36.65476563 -27 36 C-26.34 36.33 -25.68 36.66 -25 37 C-24.67 37.99 -24.34 38.98 -24 40 C-21.15076 41.29707466 -21.15076 41.29707466 -17.75 42.375 C-12.71531769 44.2127966 -9.35570442 45.67005881 -6 50 C-4.9171875 51.2065625 -4.9171875 51.2065625 -3.8125 52.4375 C0.56309556 58.62368682 0.23369198 64.70361692 0 72 C2.97 72 5.94 72 9 72 C9 73.65 9 75.3 9 77 C8.01 77 7.02 77 6 77 C6 81.29 6 85.58 6 90 C9.3 90 12.6 90 16 90 C16.33 99.24 16.66 108.48 17 118 C19.475 115.03 19.475 115.03 22 112 C25.62455354 113.4953315 27.58936816 115.54332228 30.125 118.5 C34.8645376 123.9098549 39.8667538 128.96320311 45 134 C39.03550593 148.38892072 20.21332277 157.18671498 7 163 C2.71121021 164.52316461 -1.60140797 165.83456109 -6 167 C-6.62084473 167.176521 -7.24168945 167.35304199 -7.88134766 167.53491211 C-28.99748313 172.17033941 -54.35736116 166.68155676 -72.375 155.25 C-83.08579436 147.54652411 -91.58548847 138.92975804 -99 128 C-99.56460938 127.19046875 -100.12921875 126.3809375 -100.7109375 125.546875 C-109.12468911 112.6486365 -112.36416186 97.18352781 -112.25 82 C-112.25773437 80.97132813 -112.26546875 79.94265625 -112.2734375 78.8828125 C-112.21757926 56.9305255 -101.8959743 37.59380373 -87 22 C-86.45988281 21.38511719 -85.91976562 20.77023438 -85.36328125 20.13671875 C-65.24633233 -1.90578195 -27.65838556 -9.41124858 0 0 Z " fill="#2B402A" transform="translate(239,59)"/>
<path d="M0 0 C1.30130859 0.45052734 1.30130859 0.45052734 2.62890625 0.91015625 C14.19927446 5.09287152 23.79145836 12.00597074 33 20 C32.57406501 24.39440251 29.60122716 26.70138586 26.5625 29.5625 C23.75388959 32.24884055 21.17161147 34.74258279 19 38 C16.01422497 36.65705315 13.96310949 35.1496314 11.625 32.875 C-1.027814 21.65148536 -16.77392574 15.80284555 -33.6875 16.5546875 C-50.04244616 17.87816642 -64.05786161 26.16782519 -74.73193359 38.44042969 C-85.41235069 51.57606781 -88.4212308 67.28079874 -87 84 C-85.10179429 96.76543338 -78.66337822 108.7048848 -69.29296875 117.625 C-68 119 -68 119 -68 121 C-67.34 121 -66.68 121 -66 121 C-65.67 113.41 -65.34 105.82 -65 98 C-63.68 98 -62.36 98 -61 98 C-60.67 114.5 -60.34 131 -60 148 C-58.35 148.66 -56.7 149.32 -55 150 C-55 132.84 -55 115.68 -55 98 C-53.68 98 -52.36 98 -51 98 C-51 115.49 -51 132.98 -51 151 C-49.35 151 -47.7 151 -46 151 C-46 133.18 -46 115.36 -46 97 C-44.68 97 -43.36 97 -42 97 C-42 115.48 -42 133.96 -42 153 C-40.35 153 -38.7 153 -37 153 C-37 134.52 -37 116.04 -37 97 C-35.35 97 -33.7 97 -32 97 C-32 115.81 -32 134.62 -32 154 C-30.35 154 -28.7 154 -27 154 C-27 135.19 -27 116.38 -27 97 C-25.68 97 -24.36 97 -23 97 C-23 115.81 -23 134.62 -23 154 C-21.35 153.67 -19.7 153.34 -18 153 C-17.67 134.85 -17.34 116.7 -17 98 C-16.01 98 -15.02 98 -14 98 C-14 116.15 -14 134.3 -14 153 C-12.02 152.67 -10.04 152.34 -8 152 C-8 133.85 -8 115.7 -8 97 C-6.68 97 -5.36 97 -4 97 C-4 114.49 -4 131.98 -4 150 C-2.35 149.34 -0.7 148.68 1 148 C1.33 131.5 1.66 115 2 98 C3.32 98 4.64 98 6 98 C6 105.92 6 113.84 6 122 C10.81703704 122.51328123 10.81703704 122.51328123 13.23828125 120.25 C13.92277344 119.5075 14.60726562 118.765 15.3125 118 C16.00988281 117.2575 16.70726562 116.515 17.42578125 115.75 C17.94527344 115.1725 18.46476563 114.595 19 114 C23.00939243 115.61330314 25.75673781 118.42459698 28.75 121.4375 C29.25660156 121.92798828 29.76320313 122.41847656 30.28515625 122.92382812 C31.5859308 124.22284961 32.79988368 125.60745123 34 127 C34 127.99 34 128.98 34 130 C27.75000167 136.13117707 20.25006931 141.12311213 13 146 C12.12601562 146.64839844 11.25203125 147.29679688 10.3515625 147.96484375 C-7.79430833 158.98349025 -31.3560561 159.82250194 -51.5625 155.0625 C-73.89795236 149.07082044 -90.26380663 134.20582825 -101.83837891 114.61450195 C-112.21763592 96.60934248 -113.5691285 77.2216118 -109.16796875 56.91015625 C-105.91092111 45.09773003 -99.67294511 34.45735095 -92 25 C-91.31744141 24.07380859 -91.31744141 24.07380859 -90.62109375 23.12890625 C-70.97126908 -2.26922533 -29.17834841 -11.82684809 0 0 Z " fill="#F2BE13" transform="translate(244,66)"/>
<path d="M0 0 C1.00160156 0.24363281 2.00320312 0.48726562 3.03515625 0.73828125 C18.18014339 4.62113943 30.11528886 14.15139072 41 25 C41.60199219 25.53753906 42.20398438 26.07507813 42.82421875 26.62890625 C44 28 44 28 44 31 C42.56640625 32.47265625 42.56640625 32.47265625 40.5625 34.0625 C36.31901681 37.60501705 32.71536212 41.51392995 29.078125 45.66796875 C25.05315871 50.18470724 25.05315871 50.18470724 23 52 C22.01 52 21.02 52 20 52 C18.95686947 50.35998278 17.96302733 48.68829978 17 47 C6.94347401 36.32650923 -6.04351802 29.19430881 -20.85449219 28.52734375 C-37.65555593 28.29997314 -51.49012005 34.11500729 -63.6796875 45.59765625 C-75.87582601 58.22497137 -78.53949842 71.57036839 -78.72412109 88.55688477 C-78.74273193 90.12780884 -78.74273193 90.12780884 -78.76171875 91.73046875 C-78.7611145 93.14428833 -78.7611145 93.14428833 -78.76049805 94.58666992 C-79 97 -79 97 -81 100 C-84.93814971 85.7242073 -84.17123021 68.50979782 -77.375 55.125 C-73.93311162 49.45650728 -69.67242718 44.68021456 -65 40 C-64.2884375 39.27683594 -63.576875 38.55367187 -62.84375 37.80859375 C-51.67083772 27.14170105 -37.73975993 22.46998204 -22.4831543 22.578125 C-6.02784097 23.1337637 9.34396497 30.86571796 20.65625 42.73828125 C21.93579318 44.22816829 21.93579318 44.22816829 24 44 C25.60270119 42.41561079 25.60270119 42.41561079 27.25 40.375 C29.54500225 37.64606875 31.86561709 35.1504891 34.5 32.75 C37.22261994 30.3842465 37.22261994 30.3842465 36.97265625 28.09375 C32.52687396 18.52371262 15.46700607 11.78895055 6.08349609 8.28417969 C2.43051308 7.0309033 -1.26230013 5.96721181 -5 5 C-5.59393555 4.8249292 -6.18787109 4.6498584 -6.79980469 4.46948242 C-11.75293202 3.41257343 -16.95684411 3.77166769 -22 3.75 C-23.75376953 3.7190625 -23.75376953 3.7190625 -25.54296875 3.6875 C-44.56373639 3.60305708 -61.10935318 10.59351567 -76 22 C-76.85464844 22.64453125 -77.70929688 23.2890625 -78.58984375 23.953125 C-85.93464637 30.1908504 -91.49923369 38.54856104 -96 47 C-96.78890625 48.46179688 -96.78890625 48.46179688 -97.59375 49.953125 C-105.92360491 66.53116957 -107.31847956 86.82210642 -104 105 C-103.03697704 107.65892967 -101.81831931 110.12587599 -100.5 112.625 C-99.97031616 113.65270508 -99.97031616 113.65270508 -99.42993164 114.70117188 C-87.93165235 136.58344862 -72.99808167 152.36610027 -49.07421875 160.390625 C-31.43721264 165.60476141 -11.95926254 164.94916124 5 158 C12.921875 155 12.921875 155 16 155 C15.01 155.99 14.02 156.98 13 158 C13.33 158.66 13.66 159.32 14 160 C-8.36182608 170.03110283 -34.02667546 171.67508662 -57.25 162.875 C-74.8743348 155.75181582 -88.41673255 143.6008325 -99 128 C-99.56460938 127.19046875 -100.12921875 126.3809375 -100.7109375 125.546875 C-109.12468911 112.6486365 -112.36416186 97.18352781 -112.25 82 C-112.25773437 80.97132813 -112.26546875 79.94265625 -112.2734375 78.8828125 C-112.21757926 56.9305255 -101.8959743 37.59380373 -87 22 C-86.45988281 21.38511719 -85.91976562 20.77023438 -85.36328125 20.13671875 C-65.24633233 -1.90578195 -27.65838556 -9.41124858 0 0 Z " fill="#1D3D1F" transform="translate(239,59)"/>
<path d="M0 0 C0.66 0.33 1.32 0.66 2 1 C1.505 1.433125 1.01 1.86625 0.5 2.3125 C-1.33218192 3.99740483 -1.33218192 3.99740483 -1 7 C-2.546875 8.18359375 -2.546875 8.18359375 -4.75 9.4375 C-15.10971228 16.03895703 -23.10773872 25.28679767 -29 36 C-29.48210937 36.8559375 -29.96421875 37.711875 -30.4609375 38.59375 C-32.9277699 43.21371358 -34.63060127 47.53582036 -35.54296875 52.69921875 C-36 55 -36 55 -37.03515625 58.109375 C-38.42011074 62.87864074 -38.30093571 67.63107431 -38.25 72.5625 C-38.24033203 73.53977051 -38.23066406 74.51704102 -38.22070312 75.52392578 C-37.85228067 97.83190573 -29.29565841 117.73898758 -13.91015625 134.2109375 C4.35778568 151.32078904 26.54200634 157.14459255 51 156.4609375 C58.91262914 156.01940681 65.68488012 153.99741497 73 151 C80.921875 148 80.921875 148 84 148 C83.01 148.99 82.02 149.98 81 151 C81.33 151.66 81.66 152.32 82 153 C59.63817392 163.03110283 33.97332454 164.67508662 10.75 155.875 C-6.8743348 148.75181582 -20.41673255 136.6008325 -31 121 C-31.56460938 120.19046875 -32.12921875 119.3809375 -32.7109375 118.546875 C-41.12468911 105.6486365 -44.36416186 90.18352781 -44.25 75 C-44.25773437 73.97132813 -44.26546875 72.94265625 -44.2734375 71.8828125 C-44.21761411 49.94422026 -33.90528854 30.57428712 -19 15 C-18.43667969 14.37351562 -17.87335938 13.74703125 -17.29296875 13.1015625 C-12.27010374 7.69984393 -6.19739052 3.91789056 0 0 Z " fill="#163920" transform="translate(171,66)"/>
<path d="M0 0 C7.11805556 6.42361111 7.11805556 6.42361111 9.5625 11.3125 C9.5625 15.6025 9.5625 19.8925 9.5625 24.3125 C-3.6375 24.3125 -16.8375 24.3125 -30.4375 24.3125 C-30.4375 15.17508771 -30.21445751 9.92453145 -24.0625 3.4375 C-17.70076625 -2.8080377 -7.92039626 -3.88819453 0 0 Z " fill="#EBB913" transform="translate(224.4375,106.6875)"/>
<path d="M0 0 C1.32 0 2.64 0 4 0 C4 7.92 4 15.84 4 24 C8.81703704 24.51328123 8.81703704 24.51328123 11.23828125 22.25 C11.92277344 21.5075 12.60726563 20.765 13.3125 20 C14.00988281 19.2575 14.70726562 18.515 15.42578125 17.75 C15.94527344 17.1725 16.46476562 16.595 17 16 C21.00939243 17.61330314 23.75673781 20.42459698 26.75 23.4375 C27.25660156 23.92798828 27.76320313 24.41847656 28.28515625 24.92382812 C29.5859308 26.22284961 30.79988368 27.60745123 32 29 C32 29.99 32 30.98 32 32 C26.37994145 37.51321333 19.70503788 42.08360635 13.203125 46.5 C11.41190643 47.71955307 9.66683441 49.00667606 7.9375 50.3125 C4.20382501 52.45737712 0.32966884 53.77485722 -4 54 C-4.66 53.34 -5.32 52.68 -6 52 C-4.35 51.34 -2.7 50.68 -1 50 C-0.67 33.5 -0.34 17 0 0 Z " fill="#F1BC14" transform="translate(246,164)"/>
<path d="M0 0 C1.32 0 2.64 0 4 0 C4 18.48 4 36.96 4 56 C5.65 56 7.3 56 9 56 C9 37.52 9 19.04 9 0 C10.65 0 12.3 0 14 0 C14 18.81 14 37.62 14 57 C15.65 57 17.3 57 19 57 C19 57.33 19 57.66 19 58 C22.63 58.33 26.26 58.66 30 59 C30 59.33 30 59.66 30 60 C2.83596307 60.61916858 2.83596307 60.61916858 -8 57 C-6.8125 55.5 -6.8125 55.5 -5 54 C-3.35 54 -1.7 54 0 54 C0 36.18 0 18.36 0 0 Z " fill="#B18F24" transform="translate(198,163)"/>
<path d="M0 0 C2.24579147 1.49534135 4.11167216 3.27182841 6.015625 5.17578125 C6.69677336 10.53784453 6.93750105 15.52957401 4.265625 20.30078125 C-0.50162062 24.27348593 -4.26697078 24.55549625 -10.35546875 24.42578125 C-14.81199928 24.00198043 -16.87144853 22.40383805 -19.796875 19.17578125 C-21.63275236 14.53777528 -21.78831732 10.0879426 -20.984375 5.17578125 C-16.21065519 -1.27519147 -7.51248899 -3.12034483 0 0 Z " fill="#0C361B" transform="translate(298.984375,246.82421875)"/>
<path d="M0 0 C2.62376304 1.79183817 3.91439746 3.06123843 5.5625 5.75 C6.4002696 10.81435498 6.37751692 15.32372039 3.8125 19.8125 C-0.91254708 23.88129054 -4.70655405 24.12578454 -10.80859375 24.00390625 C-15.04046978 23.59518123 -17.22421502 22.07331328 -20.03125 19.01171875 C-22.71269654 14.6990589 -22.16489617 9.63489903 -21.4375 4.75 C-16.25295228 -2.39626847 -7.91682774 -2.87884645 0 0 Z " fill="#0D361C" transform="translate(118.4375,247.25)"/>
<path d="M0 0 C1.51013672 0.57234375 1.51013672 0.57234375 3.05078125 1.15625 C5.38883746 2.06172128 7.6996448 3.00353277 10 4 C6.09285268 5.50936254 3.43115741 4.42200653 -0.4375 3.125 C-17.17809085 -2.42286673 -35.34266528 -1.39968625 -52 4 C-53.24523437 4.32291016 -53.24523437 4.32291016 -54.515625 4.65234375 C-64.34319569 7.35669324 -73.23671223 13.77097875 -80.51171875 20.75 C-82 22 -82 22 -84 22 C-84.27457031 22.59683594 -84.54914063 23.19367188 -84.83203125 23.80859375 C-85.95009519 25.90636589 -87.07507375 27.33521599 -88.6875 29.0625 C-97.51763394 39.24615812 -103.13464902 51.2905537 -105.98046875 64.42578125 C-106.31691406 65.60527344 -106.65335938 66.78476563 -107 68 C-108.485 68.495 -108.485 68.495 -110 69 C-111.20813274 53.5963075 -102.30474826 37.63529007 -92.73828125 26.02734375 C-92.16464844 25.35832031 -91.59101563 24.68929687 -91 24 C-90.23558594 23.03320312 -89.47117188 22.06640625 -88.68359375 21.0703125 C-86.05240449 17.91654738 -83.02965537 15.39250355 -79.75 12.9375 C-79.17209717 12.5034082 -78.59419434 12.06931641 -77.9987793 11.62207031 C-56.62727068 -4.20338446 -25.06936974 -10.23521854 0 0 Z " fill="#D69D21" transform="translate(244,66)"/>
<path d="M0 0 C3.3 0 6.6 0 10 0 C10.1953125 2.21354167 10.390625 4.42708333 10.5859375 6.640625 C10.95029348 9.37704633 10.95029348 9.37704633 13 13 C14.65 8.71 16.3 4.42 18 0 C19.65 0 21.3 0 23 0 C25.07626313 4.62440425 26.70022952 9.1008651 28 14 C30.40990104 7.11175931 30.40990104 7.11175931 32 0 C34.31 0 36.62 0 39 0 C38.59284866 5.15725033 36.62965736 8.89345883 34.27734375 13.38671875 C32.44511934 17.13521456 31.18621857 21.00736188 30 25 C28.02 25 26.04 25 24 25 C22.68 21.37 21.36 17.74 20 14 C18.33167423 16.50248865 17.37618326 18.41149187 16.375 21.1875 C16.11460937 21.90292969 15.85421875 22.61835938 15.5859375 23.35546875 C15.39257812 23.89816406 15.19921875 24.44085938 15 25 C13.02 25 11.04 25 9 25 C8.68546875 24.07058594 8.3709375 23.14117187 8.046875 22.18359375 C5.41936604 14.28527029 5.41936604 14.28527029 1.6875 6.875 C0 4 0 4 0 0 Z " fill="#113620" transform="translate(306,246)"/>
<path d="M0 0 C4.5478125 -0.12375 4.5478125 -0.12375 9.1875 -0.25 C10.60712036 -0.30462402 10.60712036 -0.30462402 12.05541992 -0.36035156 C16.16141019 -0.41439495 18.4598992 -0.31528727 22.078125 1.796875 C24 4 24 4 24.5625 7.5 C23.93149012 11.42628368 23.07858551 12.59485507 20 15 C21.04539719 17.25162472 22.11156417 19.14589161 23.625 21.125 C25 23 25 23 25 25 C22.03 25 19.06 25 16 25 C15.08854167 22.94921875 14.17708333 20.8984375 13.265625 18.84765625 C11.97377317 16.52359666 11.97377317 16.52359666 8 16 C8.33 18.97 8.66 21.94 9 25 C6.36 25 3.72 25 1 25 C0.67 16.75 0.34 8.5 0 0 Z " fill="#0D361C" transform="translate(154,246)"/>
<path d="M0 0 C7.59 0 15.18 0 23 0 C23 2.31 23 4.62 23 7 C22.34 7 21.68 7 21 7 C21 6.34 21 5.68 21 5 C16.71 5 12.42 5 8 5 C8 6.65 8 8.3 8 10 C11.3 10 14.6 10 18 10 C18 11.98 18 13.96 18 16 C14.7 15.67 11.4 15.34 8 15 C8 16.65 8 18.3 8 20 C12.29 20 16.58 20 21 20 C21 19.34 21 18.68 21 18 C21.66 18 22.32 18 23 18 C23 20.31 23 22.62 23 25 C15.41 25 7.82 25 0 25 C0 16.75 0 8.5 0 0 Z " fill="#113620" transform="translate(205,246)"/>
<path d="M0 0 C2.97 0 5.94 0 9 0 C8.98839844 1.28777344 8.97679687 2.57554687 8.96484375 3.90234375 C8.9554673 5.58072772 8.94636695 7.25911326 8.9375 8.9375 C8.92912109 9.78763672 8.92074219 10.63777344 8.91210938 11.51367188 C8.90888672 12.32255859 8.90566406 13.13144531 8.90234375 13.96484375 C8.89710693 14.7137085 8.89187012 15.46257324 8.88647461 16.23413086 C8.80658248 18.02667739 8.80658248 18.02667739 10 19 C13 19.16666667 13 19.16666667 16 19 C17.19341752 18.02667739 17.19341752 18.02667739 17.11352539 16.23413086 C17.10567017 15.11083374 17.10567017 15.11083374 17.09765625 13.96484375 C17.09282227 12.75151367 17.09282227 12.75151367 17.08789062 11.51367188 C17.07951172 10.66353516 17.07113281 9.81339844 17.0625 8.9375 C17.05798828 8.08349609 17.05347656 7.22949219 17.04882812 6.34960938 C17.03700373 4.23304337 17.01906769 2.11651315 17 0 C19.97 0 22.94 0 26 0 C25.96684169 3.04453575 25.89950894 6.08191807 25.8125 9.125 C25.80669922 9.9809375 25.80089844 10.836875 25.79492188 11.71875 C25.64933771 15.92451478 25.37964883 19.13542177 22.82421875 22.58203125 C19.55418982 25.38168257 18.23784767 25.74087879 14 25.5625 C12.4840625 25.53349609 12.4840625 25.53349609 10.9375 25.50390625 C7.60948536 24.93301012 5.67993885 24.04252284 3 22 C1.28838751 19.17992536 0.72634785 16.94811642 0.5859375 13.671875 C0.54726562 12.87265625 0.50859375 12.0734375 0.46875 11.25 C0.4378125 10.425 0.406875 9.6 0.375 8.75 C0.33632812 7.90953125 0.29765625 7.0690625 0.2578125 6.203125 C0.16384164 4.13576618 0.08084436 2.06791373 0 0 Z " fill="#0E361C" transform="translate(127,246)"/>
<path d="M0 0 C1.39025391 0.02320313 1.39025391 0.02320313 2.80859375 0.046875 C5.46867325 0.24307945 7.96281954 0.66495394 10.5625 1.25 C10.5625 3.23 10.5625 5.21 10.5625 7.25 C6.2725 6.59 1.9825 5.93 -2.4375 5.25 C-2.1075 6.24 -1.7775 7.23 -1.4375 8.25 C0.78800395 9.38813157 0.78800395 9.38813157 3.4375 10.25 C9.40752044 12.33863689 9.40752044 12.33863689 11.5625 15.25 C11.5625 18.75 11.5625 18.75 10.5625 22.25 C7.63092494 25.08996333 5.05586829 25.42708339 1.125 25.5 C-2.46090273 25.38007014 -5.91765375 24.97201974 -9.4375 24.25 C-9.4375 21.94 -9.4375 19.63 -9.4375 17.25 C-8.7775 17.559375 -8.1175 17.86875 -7.4375 18.1875 C-3.73273985 19.49960255 -0.34486009 19.85264135 3.5625 20.25 C3.2325 19.26 2.9025 18.27 2.5625 17.25 C0.30205829 16.11321671 0.30205829 16.11321671 -2.375 15.25 C-7.21943146 13.5771028 -7.21943146 13.5771028 -9.4375 10.25 C-9.8125 6.75 -9.8125 6.75 -9.4375 3.25 C-6.44326469 0.22102878 -4.1684534 -0.11562978 0 0 Z " fill="#0E361D" transform="translate(190.4375,245.75)"/>
<path d="M0 0 C1.44173584 -0.00845947 1.44173584 -0.00845947 2.91259766 -0.01708984 C10.46302284 0.06196518 10.46302284 0.06196518 14.375 2.3125 C13.61993164 2.32708252 12.86486328 2.34166504 12.08691406 2.35668945 C8.59914657 2.43208192 5.11224308 2.5284358 1.625 2.625 C0.43777344 2.64755859 -0.74945313 2.67011719 -1.97265625 2.69335938 C-21.13366875 3.2692368 -37.54823444 9.7634456 -52.625 21.3125 C-53.47964844 21.95703125 -54.33429688 22.6015625 -55.21484375 23.265625 C-62.55964637 29.5033504 -68.12423369 37.86106104 -72.625 46.3125 C-73.41390625 47.77429688 -73.41390625 47.77429688 -74.21875 49.265625 C-80.76989948 62.303697 -82.02648161 75.94805869 -82.625 90.3125 C-82.955 90.3125 -83.285 90.3125 -83.625 90.3125 C-84.66294097 67.83868278 -81.87642395 47.80894117 -66.49462891 30.43212891 C-64.25989564 28.00234221 -61.94705219 25.65906858 -59.625 23.3125 C-59.00753906 22.63445312 -58.39007813 21.95640625 -57.75390625 21.2578125 C-43.33094001 5.69346045 -20.46102684 0.11646381 0 0 Z " fill="#5E3E66" transform="translate(215.625,59.6875)"/>
<path d="M0 0 C0 1.98 0 3.96 0 6 C-0.66 5.835 -1.32 5.67 -2 5.5 C-5.78828501 4.86861917 -9.15611987 4.81095672 -13 5 C-15.60704898 7.60704898 -15.23905333 9.47338241 -15.265625 13.02734375 C-15.10382514 15.31952326 -15.10382514 15.31952326 -13 18 C-9.87442041 18.36530232 -9.87442041 18.36530232 -6.375 18.1875 C-5.18648437 18.16042969 -3.99796875 18.13335937 -2.7734375 18.10546875 C-1.40058594 18.05326172 -1.40058594 18.05326172 0 18 C-0.33 19.65 -0.66 21.3 -1 23 C-5.62835514 24.54278505 -10.1664845 24.50478774 -15 24 C-19.05225583 21.97387208 -21.59282534 19.80621635 -24 16 C-24.8562083 11.25614318 -24.68406186 7.21610997 -22.3125 3 C-16.11828674 -2.35715741 -7.67163973 -2.04577059 0 0 Z " fill="#0C361B" transform="translate(95,247)"/>
<path d="M0 0 C7.26 0 14.52 0 22 0 C22 1.98 22 3.96 22 6 C15.07 5.505 15.07 5.505 8 5 C8 6.65 8 8.3 8 10 C10.97 10 13.94 10 17 10 C17 11.65 17 13.3 17 15 C14.03 15 11.06 15 8 15 C8.33 18.3 8.66 21.6 9 25 C6.03 25 3.06 25 0 25 C0 16.75 0 8.5 0 0 Z " fill="#0E361D" transform="translate(230,246)"/>
<path d="M0 0 C2.64 0 5.28 0 8 0 C8 6.27 8 12.54 8 19 C12.29 19 16.58 19 21 19 C21 20.98 21 22.96 21 25 C14.07 25 7.14 25 0 25 C0 16.75 0 8.5 0 0 Z " fill="#133623" transform="translate(255,246)"/>
<path d="M0 0 C1.98 0 3.96 0 6 0 C6.66 6.6 7.32 13.2 8 20 C7.34 20 6.68 20 6 20 C5.67 21.65 5.34 23.3 5 25 C3.68 24.67 2.36 24.34 1 24 C1.99 23.67 2.98 23.34 4 23 C4.73323796 20.98491642 4.73323796 20.98491642 5 19 C4.34 19.33 3.68 19.66 3 20 C1.19272528 20.17252544 -0.62258683 20.26670538 -2.4375 20.3125 C-3.88962891 20.36857422 -3.88962891 20.36857422 -5.37109375 20.42578125 C-8 20 -8 20 -9.82421875 18.234375 C-11.75052341 14.57375618 -11.39150619 12.11081502 -11 8 C-10 6 -10 6 -8 5 C-3.03838948 4.59987012 0.47806839 4.7390342 5 7 C5 5.02 5 3.04 5 1 C3.35 1 1.7 1 0 1 C0 0.67 0 0.34 0 0 Z " fill="#5A3576" transform="translate(90,246)"/>
<path d="M0 0 C1.32 0 2.64 0 4 0 C4.01030746 0.69713104 4.02061493 1.39426208 4.03123474 2.11251831 C4.12912453 8.67537866 4.23162674 15.23814875 4.33933926 21.80085564 C4.39455469 25.17498367 4.44797243 28.5491204 4.49731445 31.92333984 C4.55489667 35.80054266 4.61862566 39.6776023 4.68359375 43.5546875 C4.70030624 44.76929657 4.71701874 45.98390564 4.73423767 47.23532104 C4.75418289 48.35633209 4.77412811 49.47734314 4.79467773 50.63232422 C4.81022202 51.62271698 4.8257663 52.61310974 4.84178162 53.6335144 C4.84807978 56.01828543 4.84807978 56.01828543 6 58 C4.41705218 58.05437607 2.83355744 58.09296271 1.25 58.125 C-0.07257813 58.15980469 -0.07257813 58.15980469 -1.421875 58.1953125 C-4.1135858 57.99139502 -5.69904974 57.36551721 -8 56 C-5 54 -5 54 0 54 C0 36.18 0 18.36 0 0 Z " fill="#E2B11A" transform="translate(198,163)"/>
<path d="M0 0 C0.99 0 1.98 0 3 0 C3.02894547 3.45831586 3.04678 6.91660072 3.0625 10.375 C3.07087891 11.35984375 3.07925781 12.3446875 3.08789062 13.359375 C3.09272461 14.77089844 3.09272461 14.77089844 3.09765625 16.2109375 C3.10551147 17.51490479 3.10551147 17.51490479 3.11352539 18.84521484 C3 21 3 21 2 23 C5.3 22.67 8.6 22.34 12 22 C12 22.66 12 23.32 12 24 C8.37 24 4.74 24 1 24 C-0.35439668 21.29120665 -0.06501451 18.99066732 0 16 C-0.66 16 -1.32 16 -2 16 C-2 16.66 -2 17.32 -2 18 C-6.29 18 -10.58 18 -15 18 C-15 16.35 -15 14.7 -15 13 C-7.25 12.875 -7.25 12.875 -5 14 C-5 12.02 -5 10.04 -5 8 C-8.3 8 -11.6 8 -15 8 C-15 6.35 -15 4.7 -15 3 C-10.71 3 -6.42 3 -2 3 C-2 3.66 -2 4.32 -2 5 C-1.34 5 -0.68 5 0 5 C0 3.35 0 1.7 0 0 Z " fill="#553570" transform="translate(228,248)"/>
<path d="M0 0 C1.32 0 2.64 0 4 0 C4 17.49 4 34.98 4 53 C1.03 53.495 1.03 53.495 -2 54 C-2.33 53.34 -2.66 52.68 -3 52 C-2.01 52 -1.02 52 0 52 C0 34.84 0 17.68 0 0 Z " fill="#DEB017" transform="translate(189,164)"/>
<path d="M0 0 C2.31 0 4.62 0 7 0 C7 8.25 7 16.5 7 25 C14.46948498 19.07842397 14.46948498 19.07842397 17 15 C18.32 15.66 19.64 16.32 21 17 C19.33333333 18.66666667 17.66666667 20.33333333 16 22 C15.175 22.94875 14.35 23.8975 13.5 24.875 C12.675 25.57625 11.85 26.2775 11 27 C9.35 26.67 7.7 26.34 6 26 C6 18.08 6 10.16 6 2 C4.68 2 3.36 2 2 2 C2 18.5 2 35 2 52 C1.01 52.495 1.01 52.495 0 53 C0 35.51 0 18.02 0 0 Z " fill="#7D5A53" transform="translate(244,162)"/>
<path d="M0 0 C0.33 0 0.66 0 1 0 C1 19.14 1 38.28 1 58 C0.01 58 -0.98 58 -2 58 C-2.0462955 50.73307672 -2.08185493 43.46618512 -2.10362434 36.19914436 C-2.11407142 32.82493006 -2.12824725 29.45081648 -2.15087891 26.07666016 C-2.17504885 22.19951682 -2.18646511 18.32251723 -2.1953125 14.4453125 C-2.20563507 13.23070343 -2.21595764 12.01609436 -2.22659302 10.76467896 C-2.22674408 9.64366791 -2.22689514 8.52265686 -2.22705078 7.36767578 C-2.231492 6.37728302 -2.23593323 5.38689026 -2.24050903 4.3664856 C-2 2 -2 2 0 0 Z " fill="#10381A" transform="translate(214,162)"/>
<path d="M0 0 C1.9375 1 1.9375 1 3 3 C3.3886759 7.08109691 3.53330773 9.74515828 1.9375 13.5 C-1.05072823 15.81346701 -3.34503841 15.4568702 -7 15 C-9.1764752 13.40024058 -9.9040804 12.51909429 -10.3984375 9.84375 C-10.39070313 9.0703125 -10.38296875 8.296875 -10.375 7.5 C-10.38273437 6.7265625 -10.39046875 5.953125 -10.3984375 5.15625 C-9.3305481 -0.62291619 -5.10780837 -0.54726518 0 0 Z " fill="#573572" transform="translate(295,251)"/>
<path d="M0 0 C0.103125 1.216875 0.20625 2.43375 0.3125 3.6875 C1.07388582 6.95971539 1.69613296 7.8064629 4.58203125 9.64453125 C7.35862058 10.88134319 10.12961095 12.00160381 13 13 C13 13.99 13 14.98 13 16 C4.42857143 16.28571429 4.42857143 16.28571429 1 14 C1 16.64 1 19.28 1 22 C-3.29 22 -7.58 22 -12 22 C-11.67 20.68 -11.34 19.36 -11 18 C-11 18.99 -11 19.98 -11 21 C-8.03 21 -5.06 21 -2 21 C-2.44472656 20.45730469 -2.88945312 19.91460937 -3.34765625 19.35546875 C-3.91355469 18.64003906 -4.47945312 17.92460937 -5.0625 17.1875 C-5.91521484 16.12595703 -5.91521484 16.12595703 -6.78515625 15.04296875 C-7.18605469 14.36878906 -7.58695313 13.69460938 -8 13 C-7 10 -7 10 -5.5 8.6875 C-3.41062346 6.33695139 -3.46442844 4.05195829 -3 1 C-1 0 -1 0 0 0 Z " fill="#51356B" transform="translate(181,250)"/>
<path d="M0 0 C2.6125869 2.19120191 2.94480862 3.56766752 3.375 6.9375 C2.93780059 10.50796189 2.43551204 12.32879325 0 15 C-3.5 15.5625 -3.5 15.5625 -7 15 C-9.30089518 13.21866179 -9.86901281 11.9169103 -10.27734375 9.05859375 C-10.4139842 6.09076326 -10.34680579 3.6528109 -8.9375 1 C-5.83132725 -0.60318593 -3.42009021 -0.42751128 0 0 Z " fill="#583573" transform="translate(114,251)"/>
<path d="M0 0 C0.99 0 1.98 0 3 0 C3 17.82 3 35.64 3 54 C1.515 54.495 1.515 54.495 0 55 C0 36.85 0 18.7 0 0 Z " fill="#F3BE13" transform="translate(208,164)"/>
<path d="M0 0 C0.33 0 0.66 0 1 0 C1 18.15 1 36.3 1 55 C0.01 55 -0.98 55 -2 55 C-2.05057965 47.48863592 -2.08568257 39.97731551 -2.10986328 32.46582031 C-2.11994038 29.90883747 -2.13360226 27.35186621 -2.15087891 24.79492188 C-2.17505217 21.12627308 -2.18646585 17.45777621 -2.1953125 13.7890625 C-2.20563507 12.64007477 -2.21595764 11.49108704 -2.22659302 10.30728149 C-2.22674408 9.2463327 -2.22689514 8.18538391 -2.22705078 7.09228516 C-2.231492 6.15518707 -2.23593323 5.21808899 -2.24050903 4.25259399 C-2 2 -2 2 0 0 Z " fill="#11381C" transform="translate(195,162)"/>
<path d="M0 0 C-0.23396484 1.82917969 -0.23396484 1.82917969 -0.47265625 3.6953125 C-1.27195332 10.867915 -1.34846677 18.07914445 -1.51757812 25.2890625 C-1.55173828 26.36671875 -1.58589844 27.444375 -1.62109375 28.5546875 C-1.6461499 29.52905762 -1.67120605 30.50342773 -1.69702148 31.50732422 C-2 34 -2 34 -4 37 C-7.05113198 25.93964658 -7.46814862 13.0535646 -4 2 C-1 0 -1 0 0 0 Z " fill="#133A1A" transform="translate(162,122)"/>
<path d="M0 0 C1.65 0 3.3 0 5 0 C5.33 0.66 5.66 1.32 6 2 C4.68 2 3.36 2 2 2 C2 19.16 2 36.32 2 54 C1.34 54 0.68 54 0 54 C0 36.18 0 18.36 0 0 Z " fill="#7A4F66" transform="translate(187,162)"/>
<path d="M0 0 C1.06863281 0.01804687 2.13726562 0.03609375 3.23828125 0.0546875 C4.04652344 0.07789062 4.85476562 0.10109375 5.6875 0.125 C5.6875 0.455 5.6875 0.785 5.6875 1.125 C4.4190625 1.21974609 4.4190625 1.21974609 3.125 1.31640625 C-3.86701141 2.07122566 -8.77690966 3.02952479 -13.79296875 8.140625 C-18.13097337 13.80567988 -18.84563152 20.1702695 -19.3125 27.125 C-20.3025 27.125 -21.2925 27.125 -22.3125 27.125 C-23.01509306 19.43550928 -22.7614194 14.19645524 -17.9609375 7.96484375 C-12.69932419 2.09228482 -7.86538535 -0.17286561 0 0 Z " fill="#59396B" transform="translate(213.3125,103.875)"/>
<path d="M0 0 C0.99 0.33 1.98 0.66 3 1 C3 8.26 3 15.52 3 23 C3.33 23 3.66 23 4 23 C4.17015625 23.76183594 4.3403125 24.52367187 4.515625 25.30859375 C5.91861959 31.28624622 7.5167972 36.69029021 10.328125 42.16015625 C11 44 11 44 10 47 C6.5 40 6.5 40 3 33 C2.61585938 32.35546875 2.23171875 31.7109375 1.8359375 31.046875 C-0.80849043 24.57173372 -0.12403634 16.86366892 -0.0625 10 C-0.05798828 9.03449219 -0.05347656 8.06898438 -0.04882812 7.07421875 C-0.03715417 4.71607911 -0.02078021 2.35807398 0 0 Z " fill="#BE8B2D" transform="translate(133,135)"/>
<path d="M0 0 C16.48210607 -0.30388226 30.80197404 -0.1745636 46 7 C42.09285268 8.50936254 39.43115741 7.42200653 35.5625 6.125 C29.54834244 4.13189564 24.39862466 2.86975064 18.04296875 2.90234375 C16.93115234 2.90556641 15.81933594 2.90878906 14.67382812 2.91210938 C13.52333984 2.92048828 12.37285156 2.92886719 11.1875 2.9375 C10.01767578 2.94201172 8.84785156 2.94652344 7.64257812 2.95117188 C4.76166642 2.9629307 1.88085956 2.97936574 -1 3 C-0.67 2.01 -0.34 1.02 0 0 Z " fill="#DFA61C" transform="translate(208,63)"/>
<path d="M0 0 C0.66 0.33 1.32 0.66 2 1 C0.515 3.475 0.515 3.475 -1 6 C-0.01 6 0.98 6 2 6 C2 8.97 2 11.94 2 15 C0.35 15 -1.3 15 -3 15 C-3.33 13.35 -3.66 11.7 -4 10 C-6.475 11.485 -6.475 11.485 -9 13 C-7.68554313 7.01191871 -4.38808974 3.96570677 0 0 Z " fill="#D09C20" transform="translate(204,107)"/>
<path d="M0 0 C0.33 0 0.66 0 1 0 C1 7.59 1 15.18 1 23 C8.46948498 17.07842397 8.46948498 17.07842397 11 13 C12.32 13.66 13.64 14.32 15 15 C13.33333333 16.66666667 11.66666667 18.33333333 10 20 C9.175 20.94875 8.35 21.8975 7.5 22.875 C6.675 23.57625 5.85 24.2775 5 25 C3.35 24.67 1.7 24.34 0 24 C0 16.08 0 8.16 0 0 Z " fill="#6A593F" transform="translate(250,164)"/>
<path d="M0 0 C1.65 0 3.3 0 5 0 C5 4.29 5 8.58 5 13 C3.35 13 1.7 13 0 13 C0 8.71 0 4.42 0 0 Z " fill="#D0A31F" transform="translate(207,137)"/>
<path d="M0 0 C1.65 0 3.3 0 5 0 C5 4.29 5 8.58 5 13 C3.35 13 1.7 13 0 13 C0 8.71 0 4.42 0 0 Z " fill="#CEA024" transform="translate(226,137)"/>
<path d="M0 0 C1.65 0 3.3 0 5 0 C5 4.29 5 8.58 5 13 C3.35 13 1.7 13 0 13 C0 8.71 0 4.42 0 0 Z " fill="#CFA123" transform="translate(188,137)"/>
<path d="M0 0 C0.99 0 1.98 0 3 0 C3 7.59 3 15.18 3 23 C5.97 22.67 8.94 22.34 12 22 C12 22.66 12 23.32 12 24 C8.7 24 5.4 24 2 24 C1.67 22.35 1.34 20.7 1 19 C0.01 19.99 -0.98 20.98 -2 22 C-2.66 21.67 -3.32 21.34 -4 21 C-3.51917969 20.52046875 -3.03835937 20.0409375 -2.54296875 19.546875 C-0.31687822 15.8724167 -0.43506856 12.4733624 -0.3125 8.25 C-0.27833984 7.45722656 -0.24417969 6.66445312 -0.20898438 5.84765625 C-0.12680896 3.89892496 -0.06171955 1.94948638 0 0 Z " fill="#553570" transform="translate(152,248)"/>
<path d="M0 0 C2.64 0 5.28 0 8 0 C8.625 2.375 8.625 2.375 9 5 C7 7 7 7 3.375 7.125 C2.26125 7.08375 1.1475 7.0425 0 7 C0 4.69 0 2.38 0 0 Z " fill="#4F3569" transform="translate(162,251)"/>
<path d="M0 0 C0.66 0.99 1.32 1.98 2 3 C1.01 4.98 0.02 6.96 -1 9 C-0.34 9 0.32 9 1 9 C0.34 12.63 -0.32 16.26 -1 20 C-1.99 20.33 -2.98 20.66 -4 21 C-4.5939348 13.42733125 -2.43286286 7.12481267 0 0 Z " fill="#D59C21" transform="translate(138,114)"/>
<path d="M0 0 C1.32 0 2.64 0 4 0 C4 4.29 4 8.58 4 13 C2.68 13 1.36 13 0 13 C0 8.71 0 4.42 0 0 Z " fill="#E1AE1C" transform="translate(236,137)"/>
<path d="M0 0 C1.32 0 2.64 0 4 0 C4 4.29 4 8.58 4 13 C2.68 13 1.36 13 0 13 C0 8.71 0 4.42 0 0 Z " fill="#E3B11A" transform="translate(217,137)"/>
<path d="M0 0 C1.32 0 2.64 0 4 0 C4 4.29 4 8.58 4 13 C2.68 13 1.36 13 0 13 C0 8.71 0 4.42 0 0 Z " fill="#E2B01B" transform="translate(198,137)"/>
<path d="M0 0 C1.98 0 3.96 0 6 0 C6.66 6.6 7.32 13.2 8 20 C7.34 20 6.68 20 6 20 C5.67 21.65 5.34 23.3 5 25 C3.68 24.67 2.36 24.34 1 24 C1.99 23.67 2.98 23.34 4 23 C4.73323796 20.98491642 4.73323796 20.98491642 5 19 C4.34 18.67 3.68 18.34 3 18 C3.99 18 4.98 18 6 18 C6 14.7 6 11.4 6 8 C5.01 7.67 4.02 7.34 3 7 C3.66 7 4.32 7 5 7 C5 5.02 5 3.04 5 1 C3.35 1 1.7 1 0 1 C0 0.67 0 0.34 0 0 Z " fill="#43355B" transform="translate(90,246)"/>
<path d="M0 0 C2.31 0 4.62 0 7 0 C7 0.66 7 1.32 7 2 C5.35 2 3.7 2 2 2 C2 6.29 2 10.58 2 15 C1.34 15 0.68 15 0 15 C0 10.05 0 5.1 0 0 Z " fill="#403850" transform="translate(224,135)"/>
<path d="M0 0 C2.31 0 4.62 0 7 0 C7 0.66 7 1.32 7 2 C5.35 2 3.7 2 2 2 C2 6.29 2 10.58 2 15 C1.34 15 0.68 15 0 15 C0 10.05 0 5.1 0 0 Z " fill="#423A4E" transform="translate(205,135)"/>
<path d="M0 0 C2.31 0 4.62 0 7 0 C7 0.66 7 1.32 7 2 C5.35 2 3.7 2 2 2 C2 6.29 2 10.58 2 15 C1.34 15 0.68 15 0 15 C0 10.05 0 5.1 0 0 Z " fill="#3E384E" transform="translate(186,135)"/>
<path d="M0 0 C1.06863281 0.01804687 2.13726562 0.03609375 3.23828125 0.0546875 C4.04652344 0.07789062 4.85476562 0.10109375 5.6875 0.125 C5.6875 0.455 5.6875 0.785 5.6875 1.125 C4.4190625 1.23714844 4.4190625 1.23714844 3.125 1.3515625 C-4.60931572 2.24804 -9.65011037 3.6850003 -15.3125 9.125 C-15.6425 8.135 -15.9725 7.145 -16.3125 6.125 C-10.95348417 1.53155786 -7.08651711 -0.15574763 0 0 Z " fill="#6F4C5A" transform="translate(213.3125,103.875)"/>
<path d="M0 0 C1.98 0 3.96 0 6 0 C6 0.66 6 1.32 6 2 C4.68 2 3.36 2 2 2 C2 6.29 2 10.58 2 15 C1.34 15 0.68 15 0 15 C0 10.05 0 5.1 0 0 Z " fill="#534056" transform="translate(234,135)"/>
<path d="M0 0 C1.98 0 3.96 0 6 0 C6 0.66 6 1.32 6 2 C4.68 2 3.36 2 2 2 C2 6.29 2 10.58 2 15 C1.34 15 0.68 15 0 15 C0 10.05 0 5.1 0 0 Z " fill="#584258" transform="translate(196,135)"/>
<path d="M0 0 C1.98 0 3.96 0 6 0 C6 0.66 6 1.32 6 2 C4.68 2 3.36 2 2 2 C2 6.29 2 10.58 2 15 C1.34 15 0.68 15 0 15 C0 10.05 0 5.1 0 0 Z " fill="#513D5B" transform="translate(215,135)"/>
<path d="M0 0 C1.63001953 0.01353516 1.63001953 0.01353516 3.29296875 0.02734375 C4.12441406 0.03894531 4.95585937 0.05054687 5.8125 0.0625 C5.8125 0.3925 5.8125 0.7225 5.8125 1.0625 C4.86890625 1.20945312 4.86890625 1.20945312 3.90625 1.359375 C-2.12988089 2.41387979 -6.83190845 4.08717136 -12.1875 7.0625 C-8.98723819 0.66197637 -7.37972456 -0.07935188 0 0 Z " fill="#DEA71C" transform="translate(215.1875,104.9375)"/>
<path d="M0 0 C0.33 0 0.66 0 1 0 C1 7.59 1 15.18 1 23 C1.66 23 2.32 23 3 23 C2.34 24.32 1.68 25.64 1 27 C0.67 27 0.34 27 0 27 C0 18.09 0 9.18 0 0 Z " fill="#573573" transform="translate(255,151)"/>
<path d="M0 0 C1.32 0 2.64 0 4 0 C4 2.64 4 5.28 4 8 C2.68 8 1.36 8 0 8 C0 5.36 0 2.72 0 0 Z " fill="#344D1A" transform="translate(211,114)"/>
<path d="M0 0 C1.32 0 2.64 0 4 0 C4 2.64 4 5.28 4 8 C2.68 8 1.36 8 0 8 C0 5.36 0 2.72 0 0 Z " fill="#314A1A" transform="translate(202,114)"/>
<path d="M0 0 C0.66 0.33 1.32 0.66 2 1 C-2.62 5.62 -7.24 10.24 -12 15 C-12.66 14.67 -13.32 14.34 -14 14 C-9.61932717 8.89662734 -5.32423478 4.12628195 0 0 Z " fill="#CE9426" transform="translate(164,79)"/>
<path d="M0 0 C0.66 0 1.32 0 2 0 C1.32829194 3.8063457 0.27253436 7.35206816 -1 11 C-1.99 11 -2.98 11 -4 11 C-2.55172414 2.55172414 -2.55172414 2.55172414 0 0 Z " fill="#DFA51B" transform="translate(141,112)"/>
<path d="M0 0 C0 0.66 0 1.32 0 2 C-1.6232687 2.6708712 -3.24867578 3.33657029 -4.875 4 C-6.23238281 4.556875 -6.23238281 4.556875 -7.6171875 5.125 C-10 6 -10 6 -12 6 C-11.375 4.125 -11.375 4.125 -10 2 C-6.38181456 0.42687589 -3.97906647 0 0 0 Z " fill="#654166" transform="translate(194,63)"/>
<path d="M0 0 C-0.33 0.66 -0.66 1.32 -1 2 C-3.64860427 2.59355614 -6.29197322 2.74209269 -9 3 C-9 2.34 -9 1.68 -9 1 C-11.64 1.33 -14.28 1.66 -17 2 C-13.63665155 -0.2422323 -11.90755033 -0.39324354 -7.9375 -0.6875 C-6.87402344 -0.77386719 -5.81054688 -0.86023437 -4.71484375 -0.94921875 C-2 -1 -2 -1 0 0 Z " fill="#D39A23" transform="translate(208,64)"/>
<path d="M0 0 C0.33 0 0.66 0 1 0 C1.14285714 8.57142857 1.14285714 8.57142857 0 12 C-0.66 12 -1.32 12 -2 12 C-2.05395478 10.37536158 -2.09277195 8.75021459 -2.125 7.125 C-2.14820313 6.22007813 -2.17140625 5.31515625 -2.1953125 4.3828125 C-2 2 -2 2 0 0 Z " fill="#E2A819" transform="translate(197,118)"/>
<path d="M0 0 C0.33 0 0.66 0 1 0 C1.27603012 2.91631827 1.52158705 5.82989715 1.75 8.75 C1.83121094 9.575 1.91242188 10.4 1.99609375 11.25 C2.44413244 17.42297754 2.44413244 17.42297754 0.015625 20.578125 C-0.98210937 21.28195312 -0.98210937 21.28195312 -2 22 C-2.66 21.67 -3.32 21.34 -4 21 C-3.51917969 20.52046875 -3.03835937 20.0409375 -2.54296875 19.546875 C-0.31687822 15.8724167 -0.43506856 12.4733624 -0.3125 8.25 C-0.27833984 7.45722656 -0.24417969 6.66445312 -0.20898438 5.84765625 C-0.12680896 3.89892496 -0.06171955 1.94948638 0 0 Z " fill="#4C3566" transform="translate(152,248)"/>
<path d="M0 0 C0.66 0.33 1.32 0.66 2 1 C1.2575 1.6496875 1.2575 1.6496875 0.5 2.3125 C-1.33218192 3.99740483 -1.33218192 3.99740483 -1 7 C-2.98 7.99 -2.98 7.99 -5 9 C-5.33 7.35 -5.66 5.7 -6 4 C-4.02 2.68 -2.04 1.36 0 0 Z " fill="#19352A" transform="translate(171,66)"/>
<path d="M0 0 C-1.15173355 2.46800047 -2.04783565 4.04783565 -4 6 C-4.46006346 8.20250992 -4.46006346 8.20250992 -4.625 10.625 C-4.69976562 11.44226563 -4.77453125 12.25953125 -4.8515625 13.1015625 C-4.92503906 14.04128906 -4.92503906 14.04128906 -5 15 C-5.33 15 -5.66 15 -6 15 C-6.62608696 6.04347826 -6.62608696 6.04347826 -4.125 1.875 C-2 0 -2 0 0 0 Z " fill="#29353D" transform="translate(77,248)"/>
<path d="M0 0 C1.32 0 2.64 0 4 0 C3.3125 2.375 3.3125 2.375 2 5 C-0.625 6.3125 -0.625 6.3125 -3 7 C-1.125 1.125 -1.125 1.125 0 0 Z " fill="#D39A23" transform="translate(145,101)"/>
<path d="M0 0 C-0.33 0.99 -0.66 1.98 -1 3 C-3.875 3.625 -3.875 3.625 -7 4 C-7.66 3.34 -8.32 2.68 -9 2 C-5.62902617 0.50178941 -3.79557881 0 0 0 Z " fill="#E0A61A" transform="translate(199,65)"/>
<path d="M0 0 C2.125 0.375 2.125 0.375 4 1 C2.37660195 2.70884005 0.70680947 4.37446717 -1 6 C-1.66 6 -2.32 6 -3 6 C-2.42655063 3.13275314 -2.1385485 2.1385485 0 0 Z " fill="#6B4765" transform="translate(256,183)"/>
<path d="M0 0 C0.99 0 1.98 0 3 0 C3 2.31 3 4.62 3 7 C2.01 7 1.02 7 0 7 C0 4.69 0 2.38 0 0 Z " fill="#143C18" transform="translate(220,114)"/>
<path d="M0 0 C0.99 0.33 1.98 0.66 3 1 C0.36 2.98 -2.28 4.96 -5 7 C-5.33 6.01 -5.66 5.02 -6 4 C-3.1875 1.9375 -3.1875 1.9375 0 0 Z " fill="#6E4469" transform="translate(164,77)"/>
<path d="M0 0 C0.99 0 1.98 0 3 0 C2.40138258 2.35171131 1.73075648 4.6859378 1 7 C0.01 7.495 0.01 7.495 -1 8 C-1.125 2.25 -1.125 2.25 0 0 Z " fill="#6C4468" transform="translate(141,102)"/>
<path d="M0 0 C0.66 0 1.32 0 2 0 C2.33 2.31 2.66 4.62 3 7 C2.01 6.01 1.02 5.02 0 4 C-0.66 4.99 -1.32 5.98 -2 7 C-1.125 2.25 -1.125 2.25 0 0 Z " fill="#38354E" transform="translate(212,92)"/>
<path d="M0 0 C0.66 0.99 1.32 1.98 2 3 C1.3203125 5.26171875 1.3203125 5.26171875 0.125 7.6875 C-0.45894531 8.89986328 -0.45894531 8.89986328 -1.0546875 10.13671875 C-1.52261719 11.05904297 -1.52261719 11.05904297 -2 12 C-3.12377697 8.69564916 -2.89554742 6.9493138 -1.5625 3.75 C-1.27503906 3.04359375 -0.98757812 2.3371875 -0.69140625 1.609375 C-0.46324219 1.07828125 -0.23507813 0.5471875 0 0 Z " fill="#B88137" transform="translate(138,114)"/>
<path d="M0 0 C0.33 0 0.66 0 1 0 C1 1.98 1 3.96 1 6 C-0.32 6.33 -1.64 6.66 -3 7 C-1.125 2.25 -1.125 2.25 0 0 Z " fill="#553965" transform="translate(145,95)"/>
</svg>
